<svg width="1512" height="1044" viewBox="0 0 1512 1044" fill="none" xmlns="http://www.w3.org/2000/svg">
<g clip-path="url(#clip0_193_5)">
<rect width="1512" height="1044" fill="black"/>
<line x1="78.5" y1="104" x2="78.5" y2="614" stroke="#00FFFF"/>
<line x1="316.5" y1="-339" x2="316.5" y2="171" stroke="#00FFFF"/>
<line x1="56.5" y1="406" x2="56.5" y2="659" stroke="#00FFFF"/>
<line x1="1456.5" y1="148" x2="1456.5" y2="401" stroke="#00FFFF"/>
<line x1="500.5" y1="-1" x2="500.5" y2="192" stroke="#00FFFF"/>
<line x1="78.6464" y1="104.489" x2="163.646" y2="19.4892" stroke="#00FFFF"/>
<line x1="113.5" y1="119" x2="113.5" y2="639" stroke="#00FFFF"/>
<line x1="351.5" y1="-324" x2="351.5" y2="196" stroke="#00FFFF"/>
<line x1="78.5" y1="651" x2="78.5" y2="687" stroke="#00FFFF"/>
<line x1="1313.06" y1="842.892" x2="1277.06" y2="843.043" stroke="#00FFFF"/>
<line x1="259.5" y1="11" x2="259.5" y2="47" stroke="#00FFFF"/>
<line x1="71.5" y1="651" x2="71.5" y2="666" stroke="#00FFFF"/>
<line x1="1452" y1="1008.5" x2="1437" y2="1008.5" stroke="#00FFFF"/>
<line x1="69" y1="355" x2="69" y2="370" stroke="#00FFFF" stroke-width="2"/>
<line x1="56" y1="665.5" x2="71" y2="665.5" stroke="#00FFFF"/>
<line x1="1437.5" y1="993" x2="1437.5" y2="1008" stroke="#00FFFF"/>
<line x1="56" y1="672.5" x2="71" y2="672.5" stroke="#00FFFF"/>
<line x1="1430.5" y1="993" x2="1430.5" y2="1008" stroke="#00FFFF"/>
<line x1="71.5" y1="672" x2="71.5" y2="687" stroke="#00FFFF"/>
<line x1="1431" y1="1008.5" x2="1416" y2="1008.5" stroke="#00FFFF"/>
<line x1="113.5" y1="651" x2="113.5" y2="723" stroke="#00FFFF"/>
<line x1="1313.2" y1="877.892" x2="1241.2" y2="878.194" stroke="#00FFFF"/>
<line x1="1278" y1="914.5" x2="1108" y2="914.5" stroke="#00FFFF"/>
<line x1="1278" y1="938.5" x2="1108" y2="938.5" stroke="#00FFFF"/>
<line x1="1277" y1="950.5" x2="1107" y2="950.5" stroke="#00FFFF"/>
<line x1="1277" y1="985.5" x2="1107" y2="985.5" stroke="#00FFFF"/>
<line x1="1299.65" y1="437.132" x2="1308.13" y2="428.646" stroke="#00FFFF"/>
<line x1="294.5" y1="11" x2="294.5" y2="83" stroke="#00FFFF"/>
<line x1="77.5" y1="773" x2="77.5" y2="881" stroke="#00FFFF"/>
<line x1="1191.05" y1="842.403" x2="1108" y2="842.481" stroke="#00FFFF"/>
<line x1="258.5" y1="133" x2="258.5" y2="241" stroke="#00FFFF"/>
<line x1="112.5" y1="808" x2="112.5" y2="856" stroke="#00FFFF"/>
<line x1="1156.2" y1="877.55" x2="1108.2" y2="877.751" stroke="#00FFFF"/>
<line x1="1339" y1="428.5" x2="1308" y2="428.5" stroke="#00FFFF"/>
<line x1="293.5" y1="168" x2="293.5" y2="216" stroke="#00FFFF"/>
<line x1="113.5" y1="736" x2="113.5" y2="748" stroke="#00FFFF"/>
<line x1="1228.2" y1="878.248" x2="1216.2" y2="878.298" stroke="#00FFFF"/>
<line x1="294.5" y1="96" x2="294.5" y2="108" stroke="#00FFFF"/>
<line x1="113.5" y1="760" x2="113.5" y2="772" stroke="#00FFFF"/>
<line x1="1204.2" y1="878.349" x2="1192.2" y2="878.399" stroke="#00FFFF"/>
<line x1="294.5" y1="120" x2="294.5" y2="132" stroke="#00FFFF"/>
<line x1="113.5" y1="784" x2="113.5" y2="796" stroke="#00FFFF"/>
<line x1="1180.2" y1="878.449" x2="1168.2" y2="878.499" stroke="#00FFFF"/>
<line x1="294.5" y1="144" x2="294.5" y2="156" stroke="#00FFFF"/>
<line x1="78.5" y1="701" x2="78.5" y2="713" stroke="#00FFFF"/>
<line x1="1263.06" y1="843.102" x2="1251.06" y2="843.152" stroke="#00FFFF"/>
<line x1="259.5" y1="61" x2="259.5" y2="73" stroke="#00FFFF"/>
<line x1="78.5" y1="725" x2="78.5" y2="737" stroke="#00FFFF"/>
<line x1="1108.5" y1="843" x2="1108.5" y2="878" stroke="#00FFFF"/>
<line x1="1107.5" y1="950" x2="1107.5" y2="985" stroke="#00FFFF"/>
<line x1="1277.5" y1="950" x2="1277.5" y2="985" stroke="#00FFFF"/>
<line x1="1348.5" y1="808" x2="1348.5" y2="843" stroke="#00FFFF"/>
<line x1="1239.06" y1="843.202" x2="1227.06" y2="843.253" stroke="#00FFFF"/>
<line x1="259.5" y1="85" x2="259.5" y2="97" stroke="#00FFFF"/>
<line x1="78.5" y1="749" x2="78.5" y2="761" stroke="#00FFFF"/>
<line x1="1215.06" y1="843.303" x2="1203.06" y2="843.353" stroke="#00FFFF"/>
<line x1="176" y1="840.5" x2="163" y2="840.5" stroke="#00FFFF"/>
<line x1="175" y1="984.473" x2="163" y2="984.473" stroke="#00FFFF"/>
<line x1="248" y1="840.5" x2="235" y2="840.5" stroke="#00FFFF"/>
<line x1="248" y1="984.473" x2="235" y2="984.473" stroke="#00FFFF"/>
<line x1="200" y1="840.5" x2="187" y2="840.5" stroke="#00FFFF"/>
<line x1="200" y1="984.473" x2="187" y2="984.473" stroke="#00FFFF"/>
<line x1="224" y1="840.5" x2="211" y2="840.5" stroke="#00FFFF"/>
<line x1="224" y1="984.473" x2="211" y2="984.473" stroke="#00FFFF"/>
<line x1="272" y1="840.5" x2="259" y2="840.5" stroke="#00FFFF"/>
<line x1="272" y1="984.473" x2="259" y2="984.473" stroke="#00FFFF"/>
<line x1="296" y1="840.5" x2="283" y2="840.5" stroke="#00FFFF"/>
<line x1="296" y1="984.473" x2="283" y2="984.473" stroke="#00FFFF"/>
<line x1="307.5" y1="864.973" x2="307.5" y2="851.973" stroke="#00FFFF"/>
<line x1="163.5" y1="865.973" x2="163.5" y2="852.973" stroke="#00FFFF"/>
<line x1="307.5" y1="912.973" x2="307.5" y2="899.973" stroke="#00FFFF"/>
<line x1="163.5" y1="913.973" x2="163.5" y2="900.973" stroke="#00FFFF"/>
<line x1="307.5" y1="888.973" x2="307.5" y2="875.973" stroke="#00FFFF"/>
<line x1="163.5" y1="889.973" x2="163.5" y2="876.973" stroke="#00FFFF"/>
<line x1="307.5" y1="936.973" x2="307.5" y2="923.973" stroke="#00FFFF"/>
<line x1="163.5" y1="937.973" x2="163.5" y2="924.973" stroke="#00FFFF"/>
<line x1="307.5" y1="960.973" x2="307.5" y2="947.973" stroke="#00FFFF"/>
<line x1="163.5" y1="960.973" x2="163.5" y2="948.973" stroke="#00FFFF"/>
<line x1="307.5" y1="984.973" x2="307.5" y2="971.973" stroke="#00FFFF"/>
<line x1="163.5" y1="984.973" x2="163.5" y2="972.973" stroke="#00FFFF"/>
<line x1="259.5" y1="109" x2="259.5" y2="121" stroke="#00FFFF"/>
<line x1="202" y1="274.5" x2="237" y2="274.5" stroke="black"/>
<line x1="72" y1="232.5" x2="133" y2="232.5" stroke="#00FFFF"/>
<line x1="1355" y1="812.5" x2="1416" y2="812.5" stroke="#00FFFF"/>
<line x1="72" y1="244.5" x2="91" y2="244.5" stroke="#00FFFF"/>
<line x1="1355" y1="824" x2="1374" y2="824" stroke="#00FFFF" stroke-width="2"/>
<line x1="1448" y1="146" x2="1467" y2="146" stroke="#00FFFF" stroke-width="2"/>
<line x1="1448" y1="341" x2="1467" y2="341" stroke="#00FFFF" stroke-width="2"/>
<line x1="43" y1="509" x2="62" y2="509" stroke="#00FFFF" stroke-width="2"/>
<line x1="43" y1="405" x2="62" y2="405" stroke="#00FFFF" stroke-width="2"/>
<line x1="72" y1="256.5" x2="91" y2="256.5" stroke="#00FFFF"/>
<line x1="1355" y1="836" x2="1374" y2="836" stroke="#00FFFF" stroke-width="2"/>
<line x1="78.3536" y1="613.646" x2="103.102" y2="638.395" stroke="#00FFFF"/>
<line x1="316.354" y1="170.646" x2="341.102" y2="195.395" stroke="#00FFFF"/>
<line x1="87.6464" y1="880.395" x2="112.395" y2="855.646" stroke="#00FFFF"/>
<line x1="268.646" y1="240.395" x2="293.395" y2="215.646" stroke="#00FFFF"/>
<line x1="78.1018" y1="686.895" x2="113.354" y2="722.147" stroke="#00FFFF"/>
<line x1="1277.16" y1="842.645" x2="1242.06" y2="878.044" stroke="#00FFFF"/>
<line x1="1348.46" y1="807.352" x2="1313.35" y2="842.752" stroke="#00FFFF"/>
<line x1="1348.46" y1="842.352" x2="1313.35" y2="877.752" stroke="#00FFFF"/>
<line x1="1310.04" y1="882.352" x2="1278.36" y2="914.305" stroke="#00FFFF"/>
<line x1="259.102" y1="46.8947" x2="294.354" y2="82.147" stroke="#00FFFF"/>
<line x1="78.3536" y1="700.646" x2="113.606" y2="735.899" stroke="#00FFFF"/>
<line x1="1263.41" y1="842.954" x2="1228.3" y2="878.353" stroke="#00FFFF"/>
<line x1="259.354" y1="60.6464" x2="294.606" y2="95.8987" stroke="#00FFFF"/>
<line x1="78.3536" y1="724.646" x2="113.606" y2="759.899" stroke="#00FFFF"/>
<line x1="1239.41" y1="843.054" x2="1204.3" y2="878.454" stroke="#00FFFF"/>
<line x1="259.354" y1="84.6464" x2="294.606" y2="119.899" stroke="#00FFFF"/>
<line x1="78.3536" y1="748.646" x2="113.606" y2="783.899" stroke="#00FFFF"/>
<line x1="1215.41" y1="843.155" x2="1180.3" y2="878.555" stroke="#00FFFF"/>
<line x1="259.354" y1="108.646" x2="294.606" y2="143.899" stroke="#00FFFF"/>
<line x1="78.3536" y1="712.646" x2="113.606" y2="747.899" stroke="#00FFFF"/>
<line x1="283.606" y1="840.871" x2="307.606" y2="864.871" stroke="#00FFFF"/>
<line x1="211.606" y1="840.871" x2="307.606" y2="936.871" stroke="#00FFFF"/>
<line x1="247.606" y1="840.871" x2="307.606" y2="900.871" stroke="#00FFFF"/>
<line x1="175.606" y1="840.871" x2="307.606" y2="972.871" stroke="#00FFFF"/>
<line x1="271.606" y1="840.871" x2="307.606" y2="876.871" stroke="#00FFFF"/>
<line x1="199.606" y1="840.871" x2="307.606" y2="948.871" stroke="#00FFFF"/>
<line x1="235.606" y1="840.871" x2="307.606" y2="912.871" stroke="#00FFFF"/>
<line x1="295.354" y1="840.619" x2="307.354" y2="852.619" stroke="#00FFFF"/>
<line x1="223.606" y1="840.871" x2="307.606" y2="924.871" stroke="#00FFFF"/>
<line x1="259.606" y1="840.871" x2="307.606" y2="888.871" stroke="#00FFFF"/>
<line x1="187.606" y1="840.871" x2="307.606" y2="960.871" stroke="#00FFFF"/>
<line x1="1251.41" y1="843.004" x2="1216.3" y2="878.404" stroke="#00FFFF"/>
<line x1="259.354" y1="72.6464" x2="294.606" y2="107.899" stroke="#00FFFF"/>
<line x1="78.3536" y1="736.646" x2="113.606" y2="771.899" stroke="#00FFFF"/>
<line x1="1227.41" y1="843.105" x2="1192.3" y2="878.504" stroke="#00FFFF"/>
<line x1="259.354" y1="96.6464" x2="294.606" y2="131.899" stroke="#00FFFF"/>
<line x1="78.3536" y1="760.646" x2="113.606" y2="795.899" stroke="#00FFFF"/>
<line x1="1203.41" y1="843.205" x2="1168.31" y2="878.605" stroke="#00FFFF"/>
<line x1="259.354" y1="120.646" x2="294.606" y2="155.899" stroke="#00FFFF"/>
<line x1="77.3536" y1="772.646" x2="112.606" y2="807.899" stroke="#00FFFF"/>
<line x1="1191.41" y1="842.255" x2="1156.3" y2="877.655" stroke="#00FFFF"/>
<line x1="258.354" y1="132.646" x2="293.606" y2="167.899" stroke="#00FFFF"/>
<line x1="78" y1="378.5" x2="113" y2="378.5" stroke="#00FFFF"/>
<line x1="78" y1="650.5" x2="114" y2="650.5" stroke="#00FFFF"/>
<line x1="103" y1="638.5" x2="113" y2="638.5" stroke="#00FFFF"/>
<line x1="341" y1="195.5" x2="351" y2="195.5" stroke="#00FFFF"/>
<line x1="78" y1="880.5" x2="88" y2="880.5" stroke="#00FFFF"/>
<line x1="259" y1="240.5" x2="269" y2="240.5" stroke="#00FFFF"/>
<circle cx="56" cy="623" r="11.5" stroke="#00FFFF"/>
<circle cx="500" cy="156" r="11.5" stroke="#00FFFF"/>
<circle cx="56" cy="444" r="11.5" stroke="#00FFFF"/>
<circle cx="1456" cy="186" r="11.5" stroke="#00FFFF"/>
<circle cx="1371.97" cy="590.971" r="11.5" transform="rotate(-45 1371.97 590.971)" stroke="#00FFFF"/>
<rect x="316" y="163" width="8" height="8" fill="#00FFFF"/>
<rect x="980" y="843" width="8" height="8" fill="#00FFFF"/>
<rect x="853" y="843" width="8" height="8" fill="#00FFFF"/>
<rect x="980" y="902" width="8" height="8" fill="#00FFFF"/>
<rect x="853" y="902" width="8" height="8" fill="#00FFFF"/>
<rect x="921" y="843" width="8" height="8" fill="#00FFFF"/>
<g filter="url(#filter0_d_193_5)">
<rect x="794" y="843" width="8" height="8" fill="#00FFFF"/>
</g>
<rect x="921" y="902" width="8" height="8" fill="#00FFFF"/>
<rect x="794" y="902" width="8" height="8" fill="#00FFFF"/>
<line x1="1299.35" y1="436.646" x2="1523.35" y2="660.646" stroke="#00FFFF"/>
<line x1="1339.35" y1="428.646" x2="1518.35" y2="607.646" stroke="#00FFFF"/>
<rect x="79" y="378" width="35" height="236" fill="#00FFFF"/>
<path d="M113.604 603.64L103.426 638.435L78.8095 613.819L113.604 603.64Z" fill="#00FFFF"/>
<path d="M1155.31 842.312L1191.1 842.917L1155.92 878.099L1155.31 842.312Z" fill="#00FFFF"/>
<path d="M1277.73 878.043L1241.92 878.008L1277.7 842.23L1277.73 878.043Z" fill="#00FFFF"/>
<rect x="103" y="614" width="10" height="24" fill="#00FFFF"/>
<rect x="1108" y="951" width="170" height="35" fill="#00FFFF"/>
<rect x="1109" y="842" width="47" height="36" fill="#00FFFF"/>
<rect x="1277" y="843" width="36" height="35" fill="#00FFFF"/>
<rect x="1313" y="842.749" width="24.5759" height="24.8522" transform="rotate(-45 1313 842.749)" fill="#00FFFF"/>
<rect x="1222" y="872.378" width="41.7693" height="8.55874" transform="rotate(-45 1222 872.378)" fill="#00FFFF"/>
<rect x="1199" y="872.14" width="41.21" height="8.55874" transform="rotate(-45 1199 872.14)" fill="#00FFFF"/>
<rect x="1174" y="872.14" width="41.21" height="8.55874" transform="rotate(-45 1174 872.14)" fill="#00FFFF"/>
<path d="M1309.39 867.099C1309.54 867.081 1309.63 866.831 1309.71 866.733C1310.64 865.606 1311.85 864.703 1312.95 863.746C1315.18 861.794 1317.43 859.871 1319.65 857.902C1321.16 856.563 1322.73 855.241 1324.16 853.817" stroke="#00FFFF" stroke-width="3" stroke-linecap="round"/>
<path d="M1311.62 862.211C1311.66 861.833 1311.93 861.418 1312.1 861.096C1312.52 860.351 1312.92 859.591 1313.37 858.87C1313.76 858.26 1314.27 857.768 1314.7 857.194C1315.31 856.383 1315.92 855.573 1316.64 854.856C1318.78 852.714 1320.99 850.533 1323.42 848.716" stroke="#00FFFF" stroke-width="3" stroke-linecap="round"/>
<path d="M1312.68 862.53C1312.75 861.959 1313.31 861.242 1313.64 860.806C1314.43 859.777 1314.99 858.64 1315.85 857.642C1316.58 856.793 1317.1 856.02 1317.97 855.304C1318.73 854.679 1319.39 853.941 1320.12 853.286C1320.84 852.633 1321.61 851.941 1322.45 851.432C1322.55 851.372 1322.92 850.996 1322.81 851.343C1322.55 852.205 1321.8 852.884 1321.18 853.498C1319.86 854.826 1318.46 856.143 1316.99 857.317C1316.44 857.756 1315.88 858.46 1315.66 859.13" stroke="#00FFFF" stroke-width="3" stroke-linecap="round"/>
<path d="M1310.24 855.729C1310.8 855.679 1311.38 855.22 1311.86 854.962C1312.62 854.549 1313.39 854.146 1314.15 853.711C1315.29 853.049 1316.21 852.128 1317.3 851.379C1318.03 850.878 1318.83 850.372 1319.43 849.72C1319.78 849.335 1320.08 848.9 1320.43 848.51C1320.56 848.359 1320.84 848.077 1320.87 847.866C1320.89 847.69 1321.05 847.66 1320.71 847.654C1319.95 847.64 1319.18 847.614 1318.42 847.677C1316.7 847.82 1315.31 848.695 1313.91 849.62C1312.63 850.46 1311.36 851.309 1310.13 852.223C1309.73 852.525 1308.23 853.744 1309.41 852.63C1310.18 851.904 1311.05 851.301 1311.83 850.576C1312.49 849.957 1313.06 849.256 1313.75 848.663C1314.8 847.756 1315.92 846.843 1316.91 845.871C1316.98 845.807 1318.09 844.923 1318.06 844.891C1317.83 844.67 1316.46 845.246 1316.2 845.363C1315.42 845.702 1314.62 846.014 1313.85 846.355C1313.25 846.621 1313.81 846.013 1313.9 845.9C1314.17 845.549 1313.94 845.607 1313.75 845.316" stroke="#00FFFF" stroke-width="5" stroke-linecap="round"/>
<path d="M1312.26 874.219C1314.94 871.267 1317.12 867.928 1319.67 864.868C1320.28 864.141 1320.99 863.499 1321.56 862.743C1322.22 861.855 1323.11 861.234 1323.82 860.405C1324.57 859.522 1325.21 858.584 1325.81 857.589C1326.1 857.106 1326.32 856.565 1326.66 856.113C1326.83 855.882 1327.04 855.683 1327.13 855.411" stroke="#00FFFF" stroke-width="5" stroke-linecap="round"/>
<path d="M1309.07 869.968C1310.62 868.269 1311.78 866.245 1313.21 864.455C1314.69 862.608 1316.46 861.232 1318.37 859.897C1319.66 859.004 1320.69 858.126 1321.72 856.957C1322.31 856.279 1323.44 855.517 1324.37 855.517" stroke="#00FFFF" stroke-width="5" stroke-linecap="round"/>
<path d="M1310.56 869.437C1311.59 869.334 1312.35 867.635 1312.9 866.934C1314.07 865.453 1315 863.985 1316.62 862.955" stroke="#00FFFF" stroke-width="5" stroke-linecap="round"/>
<path d="M1329.58 857.111C1329.33 857.142 1328.84 858.065 1328.62 858.28C1328.4 858.501 1327.92 858.724 1327.77 858.976C1327.54 859.38 1326.82 860.082 1326.39 860.299" stroke="#00FFFF" stroke-width="5" stroke-linecap="round"/>
<path d="M1325.97 862.105C1325.3 862.105 1324.99 862.441 1324.53 862.902C1324.03 863.404 1323.5 863.832 1323.04 864.396C1322.68 864.841 1322.28 865.172 1321.9 865.588C1321.63 865.895 1321.14 866.226 1320.97 866.568" stroke="#00FFFF" stroke-width="5" stroke-linecap="round"/>
<path d="M1320.23 867.312C1319.54 867.312 1319.14 868.009 1318.69 868.374C1318.27 868.704 1317.77 869.023 1317.41 869.384C1316.71 870.084 1315.94 870.58 1315.26 871.267C1314.91 871.618 1314.69 872.083 1314.38 872.465C1314.21 872.683 1313.89 873.274 1313.58 873.363C1313.27 873.452 1312.84 873.811 1312.66 874.112C1312.49 874.406 1311.99 875.151 1311.73 875.281" stroke="#00FFFF" stroke-width="5" stroke-linecap="round"/>
<path d="M1316.78 872.672C1316.67 872.802 1317.04 872.447 1317.15 872.313C1317.36 872.053 1317.57 871.787 1317.79 871.537C1317.93 871.378 1318.09 871.257 1318.24 871.108C1318.29 871.055 1318.34 870.978 1318.4 870.945" stroke="#00FFFF" stroke-width="3" stroke-linecap="round"/>
<path d="M1315.26 873.927C1315.1 874.083 1314.9 874.183 1314.76 874.354C1314.69 874.435 1314.62 874.506 1314.56 874.593C1314.54 874.621 1314.52 874.653 1314.5 874.667" stroke="#00FFFF" stroke-width="3" stroke-linecap="round"/>
<path d="M1334.88 835.498C1334.95 834.195 1336.19 833.132 1336.52 831.884C1336.82 830.721 1337.48 829.636 1338.02 828.571C1338.6 827.441 1339.25 826.374 1339.87 825.268C1340.43 824.251 1340.67 823.129 1341.16 822.075" stroke="#00FFFF" stroke-width="3" stroke-linecap="round"/>
<path d="M1333.59 831.626C1333.59 830.559 1334.44 829.437 1334.88 828.509C1335.72 826.731 1336.38 824.845 1337.33 823.121C1337.98 821.95 1339.23 820.828 1340.17 819.88C1340.34 819.713 1340.52 819.457 1340.77 819.412C1341.02 819.367 1340.86 819.88 1340.84 819.962C1340.58 821.056 1339.87 822.03 1339.31 822.983C1338.43 824.462 1337.7 826.017 1336.81 827.495C1335.87 829.068 1334.72 830.788 1333.11 831.74C1332.51 832.098 1331.5 832.319 1330.79 832.123C1330.26 831.975 1330.51 830.635 1330.64 830.335C1331.3 828.745 1332.56 827.135 1333.81 825.947C1334.26 825.513 1334.59 824.976 1335.01 824.517C1335.57 823.914 1336.14 823.273 1336.6 822.591C1337.18 821.738 1337.99 820.87 1339.1 820.87" stroke="#00FFFF" stroke-width="3" stroke-linecap="round"/>
<path d="M1331.7 826.205C1331.42 826.169 1332.74 824.636 1332.9 824.503C1333.53 823.977 1334.2 823.473 1334.7 822.811C1335.18 822.189 1335.76 821.69 1336.26 821.085C1336.85 820.36 1337.73 819.922 1338.32 819.216C1339.26 818.1 1340.35 817.212 1341.37 816.185C1342.35 815.208 1343.2 814.195 1344 813.059C1344.43 812.456 1344.99 812.179 1345.68 812.179C1345.92 812.179 1346.74 811.913 1346.54 812.227C1345.87 813.271 1345.85 814.872 1345.7 816.07C1345.55 817.312 1345.39 818.515 1345.38 819.77C1345.36 821.163 1345.29 822.584 1345.16 823.972C1344.99 825.876 1344.81 827.777 1344.69 829.685C1344.59 831.275 1344.43 832.845 1343.98 834.379C1343.61 835.679 1342.82 836.8 1341.66 837.543C1341.15 837.872 1340.42 838.155 1339.8 838.155C1339.2 838.155 1340.18 835.778 1340.26 835.584C1340.8 834.216 1341.35 832.85 1341.81 831.453C1342.12 830.521 1342.34 829.555 1342.66 828.628C1342.8 828.249 1342.7 828.99 1342.69 829.082C1342.59 830.234 1342.5 831.385 1342.37 832.534C1342.26 833.448 1342.07 834.332 1341.54 835.106C1341.18 835.643 1340.72 835.887 1340.24 836.272C1339.88 836.552 1339.59 836.781 1339.2 837.003C1338.91 837.163 1339 836.97 1339.02 836.63C1339.08 835.276 1339.55 833.9 1339.8 832.572C1340.06 831.241 1340.32 829.895 1340.65 828.58C1341.02 827.112 1341.88 825.88 1342.45 824.503C1342.6 824.158 1342.81 823.421 1343.21 823.298C1343.53 823.199 1343.49 826.697 1343.49 827.146C1343.49 827.671 1343.72 828.865 1343.39 829.298C1342.67 830.27 1342.98 827.696 1342.99 827.457C1343.05 826.077 1343.28 824.704 1343.31 823.327C1343.33 822.423 1343.31 821.516 1343.31 820.612C1343.31 819.895 1343.31 819.178 1343.31 818.461C1343.31 817.957 1343.4 817.441 1343.4 816.955C1343.4 816.479 1343.01 816.736 1342.73 816.845C1342.37 816.983 1342.19 817.583 1342.19 817.925C1342.19 818.832 1342.13 819.68 1341.98 820.578C1341.51 823.246 1340.98 825.901 1340.47 828.561C1340.18 830.138 1339.74 831.691 1338.75 832.983C1338.49 833.325 1338.27 833.711 1337.98 834.03C1337.86 834.16 1337.5 834.353 1337.69 834.398C1338.72 834.64 1339.75 835.135 1340.71 835.574C1341.23 835.811 1341.8 836.005 1342.28 836.315C1342.63 836.542 1342.87 837.007 1343.23 837.257C1343.69 837.572 1344.24 837.766 1344.69 838.098C1345.02 838.34 1345.09 838.58 1345.27 838.939C1345.47 839.326 1345.71 839.68 1345.98 840.015C1346.09 840.149 1346.39 840.195 1346.54 840.316C1346.71 840.456 1346.7 840.74 1346.86 840.899C1346.96 840.994 1347.13 841.425 1346.91 841.004C1346.62 840.462 1346.45 839.903 1346.24 839.331C1346.13 839.028 1346.06 838.654 1345.94 838.375C1345.75 837.953 1345.98 837.447 1345.98 837.027C1345.98 834.145 1345.98 831.255 1345.98 828.356C1345.98 827.209 1345.98 826.061 1345.98 824.914C1345.98 824.208 1346.07 823.49 1346.07 822.763C1346.07 822.177 1345.89 821.681 1345.89 821.128" stroke="#00FFFF" stroke-width="3" stroke-linecap="round"/>
<path d="M1344.78 814.331V814.761" stroke="#00FFFF" stroke-width="3" stroke-linecap="round"/>
<path d="M1347.44 809.684C1347.44 810.095 1347.59 810.994 1347.25 811.3C1347.11 811.424 1346.64 811.491 1346.46 811.491C1346.06 811.491 1346.3 812.074 1346.36 812.265C1346.77 813.542 1346.93 814.843 1346.93 816.18C1346.93 817.489 1347.01 818.795 1347.01 820.115C1347.01 821.618 1346.76 823.08 1346.76 824.57" stroke="#00FFFF" stroke-width="3" stroke-linecap="round"/>
<path d="M1346.76 824.57C1346.76 827.249 1346.58 829.903 1346.58 832.572C1346.58 834.752 1346.58 836.932 1346.58 839.111" stroke="#00FFFF" stroke-width="3" stroke-linecap="round"/>
<path d="M1209 849L1202.94 843H1215.06L1209 849Z" fill="#00FFFF"/>
<path d="M1233 849L1226.94 843H1239.06L1233 849Z" fill="#00FFFF"/>
<path d="M1257 849L1250.94 843H1263.06L1257 849Z" fill="#00FFFF"/>
<path d="M1223 872L1229.06 878H1216.94L1223 872Z" fill="#00FFFF"/>
<path d="M1199 872L1205.06 878H1192.94L1199 872Z" fill="#00FFFF"/>
<path d="M1175 872L1181.06 878H1168.94L1175 872Z" fill="#00FFFF"/>
<line x1="163.707" y1="647.293" x2="174.314" y2="657.899" stroke="#DA7FF2" stroke-width="2"/>
<line x1="163.707" y1="695.293" x2="174.314" y2="705.899" stroke="#DA7FF2" stroke-width="2"/>
<line x1="163.707" y1="671.293" x2="174.314" y2="681.899" stroke="#DA7FF2" stroke-width="2"/>
<line x1="163.707" y1="719.293" x2="174.314" y2="729.899" stroke="#DA7FF2" stroke-width="2"/>
<line x1="163.707" y1="659.293" x2="174.314" y2="669.899" stroke="#DA7FF2" stroke-width="2"/>
<line x1="163.707" y1="707.293" x2="174.314" y2="717.899" stroke="#DA7FF2" stroke-width="2"/>
<line x1="163.707" y1="683.293" x2="174.314" y2="693.899" stroke="#DA7FF2" stroke-width="2"/>
<line x1="163.707" y1="731.293" x2="174.314" y2="741.899" stroke="#DA7FF2" stroke-width="2"/>
<line x1="163.707" y1="653.293" x2="174.314" y2="663.899" stroke="#DA7FF2" stroke-width="2"/>
<line x1="163.707" y1="701.293" x2="174.314" y2="711.899" stroke="#DA7FF2" stroke-width="2"/>
<line x1="163.707" y1="677.293" x2="174.314" y2="687.899" stroke="#DA7FF2" stroke-width="2"/>
<line x1="163.707" y1="725.293" x2="174.314" y2="735.899" stroke="#DA7FF2" stroke-width="2"/>
<line x1="163.707" y1="665.293" x2="174.314" y2="675.899" stroke="#DA7FF2" stroke-width="2"/>
<line x1="163.707" y1="713.293" x2="174.314" y2="723.899" stroke="#DA7FF2" stroke-width="2"/>
<line x1="163.707" y1="689.293" x2="174.314" y2="699.899" stroke="#DA7FF2" stroke-width="2"/>
<line x1="163.707" y1="737.293" x2="174.314" y2="747.899" stroke="#DA7FF2" stroke-width="2"/>
<line x1="-13" y1="585.5" x2="23" y2="585.5" stroke="#DA7FF2"/>
<line x1="-13" y1="550.5" x2="59" y2="550.5" stroke="#DA7FF2"/>
<line x1="109" y1="586.5" x2="217" y2="586.5" stroke="#DA7FF2"/>
<line x1="144" y1="551.5" x2="192" y2="551.5" stroke="#DA7FF2"/>
<line x1="72" y1="550.5" x2="84" y2="550.5" stroke="#DA7FF2"/>
<line x1="96" y1="550.5" x2="108" y2="550.5" stroke="#DA7FF2"/>
<line x1="120" y1="550.5" x2="132" y2="550.5" stroke="#DA7FF2"/>
<line x1="37" y1="585.5" x2="49" y2="585.5" stroke="#DA7FF2"/>
<line x1="61" y1="585.5" x2="73" y2="585.5" stroke="#DA7FF2"/>
<line x1="85" y1="585.5" x2="97" y2="585.5" stroke="#DA7FF2"/>
<line x1="216.395" y1="576.354" x2="191.646" y2="551.605" stroke="#DA7FF2"/>
<line x1="22.8947" y1="585.898" x2="58.147" y2="550.646" stroke="#DA7FF2"/>
<line x1="36.6464" y1="585.646" x2="71.8987" y2="550.394" stroke="#DA7FF2"/>
<line x1="60.6464" y1="585.646" x2="95.8987" y2="550.394" stroke="#DA7FF2"/>
<line x1="84.6464" y1="585.646" x2="119.899" y2="550.394" stroke="#DA7FF2"/>
<line x1="48.6464" y1="585.646" x2="83.8987" y2="550.394" stroke="#DA7FF2"/>
<line x1="72.6464" y1="585.646" x2="107.899" y2="550.394" stroke="#DA7FF2"/>
<line x1="96.6464" y1="585.646" x2="131.899" y2="550.394" stroke="#DA7FF2"/>
<line x1="108.646" y1="586.646" x2="143.899" y2="551.394" stroke="#DA7FF2"/>
<line x1="216.5" y1="586" x2="216.5" y2="576" stroke="#DA7FF2"/>
<line x1="1445.71" y1="851.293" x2="1456.31" y2="861.899" stroke="#DA7FF2" stroke-width="2"/>
<line x1="1445.71" y1="899.293" x2="1456.31" y2="909.899" stroke="#DA7FF2" stroke-width="2"/>
<line x1="1445.71" y1="875.293" x2="1456.31" y2="885.899" stroke="#DA7FF2" stroke-width="2"/>
<line x1="1445.71" y1="923.293" x2="1456.31" y2="933.899" stroke="#DA7FF2" stroke-width="2"/>
<line x1="1445.71" y1="863.293" x2="1456.31" y2="873.899" stroke="#DA7FF2" stroke-width="2"/>
<line x1="1445.71" y1="911.293" x2="1456.31" y2="921.899" stroke="#DA7FF2" stroke-width="2"/>
<line x1="1445.71" y1="887.293" x2="1456.31" y2="897.899" stroke="#DA7FF2" stroke-width="2"/>
<line x1="1445.71" y1="935.293" x2="1456.31" y2="945.899" stroke="#DA7FF2" stroke-width="2"/>
<line x1="1445.71" y1="857.293" x2="1456.31" y2="867.899" stroke="#DA7FF2" stroke-width="2"/>
<line x1="1445.71" y1="905.293" x2="1456.31" y2="915.899" stroke="#DA7FF2" stroke-width="2"/>
<line x1="1445.71" y1="881.293" x2="1456.31" y2="891.899" stroke="#DA7FF2" stroke-width="2"/>
<line x1="1445.71" y1="929.293" x2="1456.31" y2="939.899" stroke="#DA7FF2" stroke-width="2"/>
<line x1="1445.71" y1="869.293" x2="1456.31" y2="879.899" stroke="#DA7FF2" stroke-width="2"/>
<line x1="1445.71" y1="917.293" x2="1456.31" y2="927.899" stroke="#DA7FF2" stroke-width="2"/>
<line x1="1445.71" y1="893.293" x2="1456.31" y2="903.899" stroke="#DA7FF2" stroke-width="2"/>
<line x1="1445.71" y1="941.293" x2="1456.31" y2="951.899" stroke="#DA7FF2" stroke-width="2"/>
<line x1="1393" y1="299" x2="1412" y2="299" stroke="#DA7FF2" stroke-width="2"/>
<line x1="1392" y1="625" x2="1411" y2="625" stroke="#DA7FF2" stroke-width="2"/>
<circle cx="1401" cy="339" r="11.5" stroke="#DA7FF2"/>
<line x1="1400.5" y1="0.999483" x2="1401.58" y2="1044" stroke="#DA7FF2"/>
<rect x="68.5" y="989.5" width="20" height="20" stroke="#DA7FF2"/>
<line x1="252.354" y1="941.619" x2="287.606" y2="976.872" stroke="#00FFFF"/>
<line x1="163.354" y1="840.619" x2="307.354" y2="984.619" stroke="#00FFFF"/>
<line x1="163.606" y1="864.871" x2="283.606" y2="984.871" stroke="#00FFFF"/>
<line x1="163.606" y1="936.871" x2="211.606" y2="984.871" stroke="#00FFFF"/>
<line x1="163.606" y1="900.871" x2="247.606" y2="984.871" stroke="#00FFFF"/>
<line x1="163.606" y1="972.871" x2="175.354" y2="984.619" stroke="#00FFFF"/>
<line x1="163.606" y1="876.871" x2="271.606" y2="984.871" stroke="#00FFFF"/>
<line x1="163.606" y1="948.871" x2="199.606" y2="984.871" stroke="#00FFFF"/>
<line x1="163.606" y1="912.871" x2="235.606" y2="984.871" stroke="#00FFFF"/>
<line x1="163.606" y1="852.871" x2="295.606" y2="984.871" stroke="#00FFFF"/>
<line x1="163.606" y1="924.871" x2="223.606" y2="984.871" stroke="#00FFFF"/>
<line x1="163.606" y1="888.871" x2="258.606" y2="983.871" stroke="#00FFFF"/>
<line x1="163.606" y1="960.871" x2="187.606" y2="984.871" stroke="#00FFFF"/>
<line x1="1460.65" y1="519.132" x2="1469.13" y2="510.646" stroke="#00FFFF"/>
<line x1="1500" y1="510.5" x2="1469" y2="510.5" stroke="#00FFFF"/>
<line x1="1460.35" y1="518.646" x2="1511.35" y2="569.646" stroke="#00FFFF"/>
<line x1="1500.35" y1="510.646" x2="1512.35" y2="522.646" stroke="#00FFFF"/>
<line x1="236.5" y1="-2.18557e-08" x2="236.5" y2="57" stroke="#00FFFF"/>
<line x1="212.5" y1="-10" x2="212.5" y2="20" stroke="#00FFFF"/>
<line x1="163.5" y1="-10" x2="163.5" y2="20" stroke="#00FFFF"/>
<line x1="113.184" y1="119.031" x2="213.109" y2="19.105" stroke="#00FFFF"/>
<line x1="1357.05" y1="606.206" x2="1515.17" y2="448.087" stroke="#00FFFF"/>
<line x1="1377.35" y1="527.646" x2="1512.35" y2="662.646" stroke="#00FFFF"/>
<line x1="97.5" y1="989" x2="97.5" y2="1010" stroke="#DA7FF2"/>
</g>
<defs>
<filter id="filter0_d_193_5" x="790" y="843" width="16" height="16" filterUnits="userSpaceOnUse" color-interpolation-filters="sRGB">
<feFlood flood-opacity="0" result="BackgroundImageFix"/>
<feColorMatrix in="SourceAlpha" type="matrix" values="0 0 0 0 0 0 0 0 0 0 0 0 0 0 0 0 0 0 127 0" result="hardAlpha"/>
<feOffset dy="4"/>
<feGaussianBlur stdDeviation="2"/>
<feComposite in2="hardAlpha" operator="out"/>
<feColorMatrix type="matrix" values="0 0 0 0 0 0 0 0 0 0 0 0 0 0 0 0 0 0 0.25 0"/>
<feBlend mode="normal" in2="BackgroundImageFix" result="effect1_dropShadow_193_5"/>
<feBlend mode="normal" in="SourceGraphic" in2="effect1_dropShadow_193_5" result="shape"/>
</filter>
<clipPath id="clip0_193_5">
<rect width="1512" height="1044" fill="white"/>
</clipPath>
</defs>
</svg>
